<?xml version="1.0" encoding="utf-8"?>
<!-- Generator: Adobe Illustrator 19.0.1, SVG Export Plug-In . SVG Version: 6.00 Build 0)  -->
<svg version="1.1" id="Слой_1" xmlns="http://www.w3.org/2000/svg" xmlns:xlink="http://www.w3.org/1999/xlink" x="0px" y="0px"
	 viewBox="0 0 308 74.03" style="enable-background:new 0 0 308 74.03;" xml:space="preserve">
<style type="text/css">
	.st0{fill:url(#SVGID_1_);}
</style>
<linearGradient id="SVGID_1_" gradientUnits="userSpaceOnUse" x1="1.8809" y1="37.7163" x2="310.8987" y2="37.7163">
	<stop  offset="0" style="stop-color:#94368B"/>
	<stop  offset="0.2" style="stop-color:#C52672"/>
	<stop  offset="0.4" style="stop-color:#DF244F"/>
	<stop  offset="0.6" style="stop-color:#E96C5C"/>
	<stop  offset="0.8" style="stop-color:#F5B267"/>
	<stop  offset="1" style="stop-color:#FBCF69"/>
</linearGradient>
<path class="st0" d="M27.057,7.8c-0.172-0.252-1.815-0.353-4.071-0.378C18.021,7.368,10.085,7.685,8.311,7.595
	C6.979,7.527,5.097,8.051,4.233,7.728c2.415,6.767,5.458-2.378,3.228,10.478C5.163,31.454,5.519,45.565,4.233,58.827
	C4.216,59,2.727,58.945,2.142,59.506C1.626,60.001,1.9,61.37,2.736,61.37c5.271,0,15.23,0.846,19.27-0.287
	c1.537-0.431,2.241-1.659,0.776-2.184c-0.408-0.146-1.658-0.447-2.027-0.573c-0.104-0.035,2.844-27.156,2.844-29.497
	c0-21.807-2.425-16.89,3.151-19.631C27.097,9.026,27.235,8.134,27.057,7.8L27.057,7.8z M258.6,32.201l-0.077-0.072
	c1.234-4.038,11.142-30.261,16.906-28.995c4.09,0.899-6.031,16.524-6.763,17.655c-2.752,4.257-6.113,7.934-9.837,11.411
	C258.728,32.297,258.651,32.297,258.6,32.201L258.6,32.201z M257.447,68.731c-5.818-2.707-3.038-32.626,0.461-33.444
	c0.205-0.048,0.385-0.024,0.538,0.071c0,0.048,0.051,0.072,0.154,0.072c7.159,6.685,9.453,27.689,0.153,33.229
	C258.395,68.947,257.959,68.971,257.447,68.731L257.447,68.731z M283.191,29.618c-1.152-1.07-8.869,6.805-16.253,5.885
	c-15.446-1.923,5.23-5.459,10.72-27.128c2.578-10.178-9.817-10.869-25.322,9.186c-2.769,3.581-5.624,9.561-7.835,16.304
	c-3.015,4.04-6.038,8.737-6.497,9.389c-1.9,2.695-4.522,5.98-7.915,7.249c-0.605-1.412-0.754-2.622-0.78-3.897
	c-0.137-6.677,3.165-14.246,5.785-20.369c0.802-1.874,1.276-3.678,0.221-4.657c0-4.502-11.99-5.457-11.681-4.88
	c-1.812,1.692-15.516,33.446-1.076,36.817c8.489,1.982,11.312-0.419,16.6-7.822l0.154-0.072c1.066-1.327,2.085-2.831,3.114-4.361
	c-2.473,10.551-2.936,21.51,1.035,27.47c11.129,16.701,31.651-9.457,19.903-31.578c-0.004-0.008,7.488,1.153,13.526-1.651
	C277.918,35.025,284.475,30.339,283.191,29.618L283.191,29.618z M287.571,34.139c-0.63,0.294,4.402-17.468,8.684-15.466
	c4.42,2.066-5.984,13.732-7.877,14.856C288.096,33.697,287.827,33.9,287.571,34.139L287.571,34.139z M303.77,35.55
	c-3.381,4.236-11.763,14.008-17.478,13.83c-1.839-0.057-1.762-1.775-0.526-9.895c0.192-1.263,4.63-3.221,7.678-6.087
	c3.245-3.051,5.123-7.028,5.692-8.638c2.226-6.305-1.821-8.097-7.419-8.973c-4.231-0.662-7.082,0.562-10.149,2.614
	c-5.672,3.794-12.901,11.064-12.901,26.001c0,13.209,17.021,12.492,25.283,5.742c0.41-0.335,0.564-0.479,0.461-0.431
	c2.402-1.403,7.948-6.532,11.991-11.401C307.373,36.913,307.11,30.397,303.77,35.55L303.77,35.55z M192.127,20.862L192.127,20.862
	L192.127,20.862z M192.049,21.436l-0.077,0.072c0.051-0.047,0.077-0.119,0.077-0.215V21.436L192.049,21.436z M191.896,21.867v0.287
	l0.077-0.646L191.896,21.867L191.896,21.867z M200.042,21.652v-0.144c0,0.096-0.026,0.168-0.077,0.215L200.042,21.652
	L200.042,21.652z M200.118,21.078L200.118,21.078L200.118,21.078z M215.104,57.392c0.154,0.096,0.282,0.335,0.385,0.718
	c0.634,4.812-12.499,3.23-15.063,3.23c-5.816,0-11.958,0.78-18.003,1.289c-3.552,0.299-7.139,1.485-8.249-2.607
	c-1.06-3.905,1.432-9.842,2.253-13.756c0.62-2.957,1.172-5.985,1.253-6.6c0.021-0.156,0.056-0.37,0.106-0.63
	c-2.326,4.277-5.054,8.554-5.639,9.458c-10.478,16.168-16.319-0.936-16.369-0.861c-5.329,8.066-16.093,6.716-20.057,3.014
	L135.336,50c-6.655-6.215,0.125-17.512,3.995-23.541c-0.163-0.153,1.106-1.563,1.23-1.794c5.18-9.658,28.44-0.074,20.441,1.328
	c-7.966,1.397-11.987,17.042-11.789,22.926c0.113,3.362,6.433-4.487,6.814-5.948c1.501-5.75,2.615-13.928,5.052-13.928l0.768-0.143
	c0.102,0.096,0.231,0.132,0.385,0.108c3.075-0.481,4.146,0.787,4.424,2.586c0.57,3.683-3.693,17.771-0.818,18.863
	c1.662,0.631,4.85-4.263,4.847-4.26l3.304-5.454c-0.563,0.718-0.755,0.945-0.576,0.682c2.495-3.663,4.078-7.799,6.263-11.591
	c0.096-0.15,0.218-0.268,0.356-0.345c1.934-7.794,4.334-17.092,4.255-17.167c0.301-1.59,1.396-3.306,1.614-4.952
	c0.368-2.786,15.6-2.702,15.6,3.445c0.228,0.212-0.23,0.811-0.23,1.041c0,11.405-8.299,33.449-8.299,40.442
	c0.257,0.24-1.23,5.139-0.385,4.952C199.597,55.703,208.351,55.29,215.104,57.392L215.104,57.392z M199.888,22.082l0.077-0.359
	l-0.077,0.646V22.082L199.888,22.082z M228.86,11.532c-1.223-1.142-1.528-6.07,0.422-6.567
	C237.815,2.788,236.01,15.989,228.86,11.532L228.86,11.532z M140.561,30.981c-2.042-5.693-14.414,28.921-22.248,24.043
	c-0.197-0.123-1.345-0.615-1.345-0.861c-4.913-4.585,8.084-34.786,10.198-34.91c2.788-0.162,9.44,0.452,9.628-2.697
	c-2.224-1.87-9.102,0.417-9.759-1.959c-1.553-5.612-13.434-8.013-14.14-4.716l-0.154,0.072c-1.714,3.729-2.21,4.496-3.351,5.064
	c-1.295,0.644-3.422,0.061-9.098,0.061c-0.731,0-1.327,1.794,0.017,2.583c1.046,0.614,3.268,1.08,7.514,0.796
	c1.901-0.127-0.715,5.131-3.58,11.081c-0.12,0-0.232,0.051-0.34,0.15c-4.447,4.153-10.064,9.667-15.6,12.488
	c-1.785-2.316-7.409-6.044-7.993-8.756c3.939-3.113,9.706-11.088,2.767-13.923l0.077-0.072c-4.673-1.397-17.042,4.971-8.568,22.177
	c1.101,2.236,1.979,4.614,2.497,7.033c-5.043,3.687-8.373,8.809-5.525,13.609c1.215,2.05,2.818,3.13,5.563,3.257
	c7.795,0.361,22.689-7.559,12.566-21.746c1.307-1.068,8.242-5.729,12.317-9.451c-0.476,1.055-0.923,2.093-1.321,3.088
	c-2.006,5.016-1.88,10.808-0.532,16.023c1.274,4.933,5.143,9.638,17.432,6.559C128.132,57.333,141.048,33.263,140.561,30.981
	L140.561,30.981z M76.931,31.843c0.275-0.77,0.886-0.932,0.999-0.036c0.668,5.303-9.854,20.581-17.615,18.023
	c-6.633-2.186-7.387-13.503-4.594-19.709c7.777-17.282-6.177-2.639-7.724,6.495c-0.377,2.229-2.365,19.198-4.496,19.198
	c-0.239,0.447-1.553,0.933-2.075,0.933c-1.191,1.112-9.225-0.793-10.298-1.794c0-0.048-0.013-0.084-0.038-0.108
	c-4.156-3.91-0.96-11.547-0.96-16.256c0.102-0.096,0.153-0.203,0.153-0.323c0-1.12,3.788-20.028,3.228-20.203
	c-0.002,0,15.446-4.071,15.446,10.12h0.077c1.647-1.925,2.524-4.107,4.534-5.813c0-0.774,3.995-2.942,4.765-2.942
	c12.11,0,7.243,12.81,6.071,19.377C61.217,56.668,74.511,37.979,76.931,31.843L76.931,31.843z M81.004,26.891l0.308-1.22
	c2.323-4.338,3.546-1.087,0.384,1.865C81.082,28.11,80.926,27.466,81.004,26.891L81.004,26.891z M73.319,57.967
	c0-2.705,2.435-5.577,4.381-7.392c0.619,1.734,0.774,4.07,0.36,6.258c-0.371,1.963-0.896,3.122-1.989,3.557
	C74.979,60.825,73.319,60.539,73.319,57.967z"/>
</svg>
